<?xml version="1.0" standalone="no"?>
<!DOCTYPE svg PUBLIC "-//W3C//DTD SVG 20010904//EN"
 "http://www.w3.org/TR/2001/REC-SVG-20010904/DTD/svg10.dtd">
<svg version="1.0" xmlns="http://www.w3.org/2000/svg"
 width="160.000000pt" height="160.000000pt" viewBox="0 0 160.000000 160.000000"
 preserveAspectRatio="xMidYMid meet">
<metadata>
Created by potrace 1.14, written by Peter Selinger 2001-2017
</metadata>
<g transform="translate(0.000000,160.000000) scale(0.100000,-0.100000)"
fill="#000000" stroke="none">
<path d="M645 1581 c-211 -63 -354 -200 -426 -410 -24 -69 -24 -84 0 -45 47
77 140 115 226 93 63 -17 66 -24 40 -72 -72 -130 -42 -309 69 -417 41 -40 42
-43 36 -86 -12 -77 10 -152 56 -195 101 -93 259 -98 434 -12 87 43 209 157
254 238 73 133 99 295 69 440 -43 209 -207 390 -413 457 -90 29 -261 33 -345
9z m308 -274 c228 -104 274 -412 88 -585 -94 -88 -246 -115 -365 -67 -32 13
-62 28 -66 32 -5 4 -2 35 5 68 7 33 12 105 11 160 -3 110 -22 168 -76 237 -17
20 -30 41 -30 47 0 14 89 90 124 106 67 29 94 34 171 32 61 -2 94 -9 138 -30z"/>
<path d="M191 554 c-1 -394 1 -422 41 -473 56 -73 159 -100 239 -63 91 41 124
95 123 202 0 112 -51 211 -160 312 -121 111 -201 233 -229 347 -12 50 -13 18
-14 -325z"/>
</g>
</svg>
