<svg width="643" height="160" viewBox="0 0 643 160" fill="none" xmlns="http://www.w3.org/2000/svg">
<path d="M201.285 118.107C194.373 118.107 188.453 116.603 183.525 113.595C178.597 110.555 174.805 106.331 172.149 100.923C169.525 95.5147 168.213 89.2427 168.213 82.1067C168.213 74.9707 169.525 68.6987 172.149 63.2907C174.805 57.8827 178.597 53.6747 183.525 50.6667C188.453 47.6267 194.373 46.1067 201.285 46.1067C208.197 46.1067 214.117 47.6267 219.045 50.6667C224.005 53.6747 227.797 57.8827 230.421 63.2907C233.077 68.6987 234.405 74.9707 234.405 82.1067C234.405 89.2427 233.077 95.5147 230.421 100.923C227.797 106.331 224.005 110.555 219.045 113.595C214.117 116.603 208.197 118.107 201.285 118.107ZM201.285 107.211C205.925 107.243 209.781 106.219 212.853 104.139C215.957 102.059 218.277 99.1307 219.813 95.3547C221.381 91.5787 222.165 87.1627 222.165 82.1067C222.165 77.0507 221.381 72.6667 219.813 68.9547C218.277 65.2107 215.957 62.2987 212.853 60.2187C209.781 58.1387 205.925 57.0667 201.285 57.0027C196.645 56.9707 192.789 57.9947 189.717 60.0747C186.645 62.1547 184.325 65.0827 182.757 68.8587C181.221 72.6347 180.453 77.0507 180.453 82.1067C180.453 87.1627 181.221 91.5627 182.757 95.3067C184.293 99.0187 186.597 101.915 189.669 103.995C192.773 106.075 196.645 107.147 201.285 107.211Z" fill="white"/>
<path d="M287.495 116.667V91.7067C287.495 90.0747 287.383 88.2667 287.159 86.2827C286.935 84.2987 286.408 82.3947 285.576 80.5707C284.776 78.7147 283.56 77.1947 281.928 76.0107C280.328 74.8267 278.151 74.2347 275.399 74.2347C273.927 74.2347 272.471 74.4747 271.031 74.9547C269.591 75.4347 268.28 76.2667 267.096 77.4507C265.944 78.6027 265.015 80.2027 264.311 82.2507C263.607 84.2667 263.255 86.8587 263.255 90.0267L256.392 87.0987C256.392 82.6827 257.24 78.6827 258.936 75.0987C260.664 71.5147 263.191 68.6667 266.519 66.5547C269.847 64.4107 273.943 63.3387 278.807 63.3387C282.647 63.3387 285.815 63.9787 288.311 65.2587C290.807 66.5387 292.792 68.1707 294.264 70.1547C295.736 72.1387 296.823 74.2507 297.527 76.4907C298.231 78.7307 298.68 80.8587 298.872 82.8747C299.096 84.8587 299.208 86.4747 299.208 87.7227V116.667H287.495ZM251.544 116.667V64.8267H261.863V80.9067H263.255V116.667H251.544Z" fill="white"/>
<path d="M342.138 118.107C336.89 118.107 332.281 116.971 328.313 114.699C324.345 112.427 321.241 109.275 319.001 105.243C316.793 101.211 315.689 96.5707 315.689 91.3227C315.689 85.6587 316.778 80.7467 318.954 76.5867C321.13 72.3947 324.154 69.1467 328.026 66.8427C331.898 64.5387 336.378 63.3867 341.466 63.3867C346.842 63.3867 351.401 64.6507 355.145 67.1787C358.921 69.6747 361.722 73.2107 363.546 77.7867C365.37 82.3627 366.058 87.7547 365.61 93.9627H354.138V89.7387C354.106 84.1067 353.114 79.9947 351.162 77.4027C349.21 74.8107 346.138 73.5147 341.946 73.5147C337.21 73.5147 333.689 74.9867 331.385 77.9307C329.081 80.8427 327.929 85.1147 327.929 90.7467C327.929 95.9947 329.081 100.059 331.385 102.939C333.689 105.819 337.05 107.259 341.466 107.259C344.314 107.259 346.761 106.635 348.809 105.387C350.889 104.107 352.49 102.267 353.61 99.8667L365.033 103.323C363.049 107.995 359.977 111.627 355.817 114.219C351.689 116.811 347.13 118.107 342.138 118.107ZM324.281 93.9627V85.2267H359.946V93.9627H324.281Z" fill="white"/>
<path d="M410.898 116.667V47.5467H439.458C440.13 47.5467 440.994 47.5787 442.05 47.6427C443.106 47.6747 444.082 47.7707 444.978 47.9307C448.978 48.5387 452.274 49.8667 454.866 51.9147C457.49 53.9627 459.426 56.5547 460.674 59.6907C461.954 62.7947 462.594 66.2507 462.594 70.0587C462.594 73.8347 461.954 77.2907 460.674 80.4267C459.394 83.5307 457.442 86.1067 454.818 88.1547C452.226 90.2027 448.946 91.5307 444.978 92.1387C444.082 92.2667 443.09 92.3627 442.002 92.4267C440.946 92.4907 440.098 92.5227 439.458 92.5227H422.466V116.667H410.898ZM422.466 81.7227H438.978C439.618 81.7227 440.338 81.6907 441.138 81.6267C441.938 81.5627 442.674 81.4347 443.346 81.2427C445.266 80.7627 446.77 79.9147 447.858 78.6987C448.978 77.4827 449.762 76.1067 450.21 74.5707C450.69 73.0347 450.93 71.5307 450.93 70.0587C450.93 68.5867 450.69 67.0827 450.21 65.5467C449.762 63.9787 448.978 62.5867 447.858 61.3707C446.77 60.1547 445.266 59.3067 443.346 58.8267C442.674 58.6347 441.938 58.5227 441.138 58.4907C440.338 58.4267 439.618 58.3947 438.978 58.3947H422.466V81.7227Z" fill="white"/>
<path d="M493.074 118.107C489.33 118.107 486.162 117.403 483.57 115.995C480.978 114.555 479.01 112.651 477.666 110.283C476.354 107.915 475.698 105.307 475.698 102.459C475.698 99.9627 476.114 97.7227 476.946 95.7387C477.778 93.7227 479.058 91.9947 480.786 90.5547C482.514 89.0827 484.754 87.8827 487.506 86.9547C489.586 86.2827 492.018 85.6747 494.802 85.1307C497.618 84.5867 500.658 84.0907 503.922 83.6427C507.218 83.1627 510.658 82.6507 514.242 82.1067L510.114 84.4587C510.146 80.8747 509.346 78.2347 507.714 76.5387C506.082 74.8427 503.33 73.9947 499.458 73.9947C497.122 73.9947 494.866 74.5387 492.69 75.6267C490.514 76.7147 488.994 78.5867 488.13 81.2427L477.57 77.9307C478.85 73.5467 481.282 70.0267 484.866 67.3707C488.482 64.7147 493.346 63.3867 499.458 63.3867C504.066 63.3867 508.114 64.1387 511.602 65.6427C515.122 67.1467 517.73 69.6107 519.426 73.0347C520.354 74.8587 520.914 76.7307 521.106 78.6507C521.298 80.5387 521.394 82.6027 521.394 84.8427V116.667H511.266V105.435L512.946 107.259C510.61 111.003 507.874 113.755 504.738 115.515C501.634 117.243 497.746 118.107 493.074 118.107ZM495.378 108.891C498.002 108.891 500.242 108.427 502.098 107.499C503.954 106.571 505.426 105.435 506.514 104.091C507.634 102.747 508.386 101.483 508.77 100.299C509.378 98.8267 509.714 97.1467 509.778 95.2587C509.874 93.3387 509.922 91.7867 509.922 90.6027L513.474 91.6587C509.986 92.2027 506.994 92.6827 504.498 93.0987C502.002 93.5147 499.858 93.9147 498.066 94.2987C496.274 94.6507 494.69 95.0507 493.314 95.4987C491.97 95.9787 490.834 96.5387 489.906 97.1787C488.978 97.8187 488.258 98.5547 487.746 99.3867C487.266 100.219 487.026 101.195 487.026 102.315C487.026 103.595 487.346 104.731 487.986 105.723C488.626 106.683 489.554 107.451 490.77 108.027C492.018 108.603 493.554 108.891 495.378 108.891Z" fill="white"/>
<path d="M561.587 118.107C555.187 118.107 549.987 116.667 545.987 113.787C541.987 110.907 539.555 106.859 538.691 101.643L550.499 99.8187C551.107 102.379 552.451 104.395 554.531 105.867C556.611 107.339 559.235 108.075 562.403 108.075C565.187 108.075 567.331 107.531 568.835 106.443C570.371 105.323 571.139 103.803 571.139 101.883C571.139 100.699 570.851 99.7547 570.275 99.0507C569.731 98.3147 568.515 97.6107 566.627 96.9387C564.739 96.2667 561.843 95.4187 557.939 94.3947C553.587 93.2427 550.131 92.0107 547.571 90.6987C545.011 89.3547 543.171 87.7707 542.051 85.9467C540.931 84.1227 540.371 81.9147 540.371 79.3227C540.371 76.0907 541.219 73.2747 542.915 70.8747C544.611 68.4747 546.979 66.6347 550.019 65.3547C553.059 64.0427 556.643 63.3867 560.771 63.3867C564.803 63.3867 568.371 64.0107 571.475 65.2587C574.611 66.5067 577.139 68.2827 579.059 70.5867C580.979 72.8907 582.163 75.5947 582.611 78.6987L570.803 80.8107C570.515 78.6027 569.507 76.8587 567.779 75.5787C566.083 74.2987 563.811 73.5787 560.963 73.4187C558.243 73.2587 556.051 73.6747 554.387 74.6667C552.723 75.6267 551.891 76.9867 551.891 78.7467C551.891 79.7387 552.227 80.5867 552.899 81.2907C553.571 81.9947 554.915 82.6987 556.931 83.4027C558.979 84.1067 562.019 84.9707 566.051 85.9947C570.179 87.0507 573.475 88.2667 575.939 89.6427C578.435 90.9867 580.227 92.6027 581.315 94.4907C582.435 96.3787 582.995 98.6667 582.995 101.355C582.995 106.571 581.091 110.667 577.283 113.643C573.507 116.619 568.275 118.107 561.587 118.107Z" fill="white"/>
<path d="M621.204 118.107C614.804 118.107 609.604 116.667 605.604 113.787C601.604 110.907 599.172 106.859 598.308 101.643L610.116 99.8187C610.724 102.379 612.068 104.395 614.148 105.867C616.228 107.339 618.852 108.075 622.02 108.075C624.804 108.075 626.948 107.531 628.452 106.443C629.988 105.323 630.756 103.803 630.756 101.883C630.756 100.699 630.468 99.7547 629.892 99.0507C629.348 98.3147 628.132 97.6107 626.244 96.9387C624.356 96.2667 621.46 95.4187 617.556 94.3947C613.204 93.2427 609.748 92.0107 607.188 90.6987C604.628 89.3547 602.788 87.7707 601.668 85.9467C600.548 84.1227 599.988 81.9147 599.988 79.3227C599.988 76.0907 600.836 73.2747 602.532 70.8747C604.228 68.4747 606.596 66.6347 609.636 65.3547C612.676 64.0427 616.26 63.3867 620.388 63.3867C624.42 63.3867 627.988 64.0107 631.092 65.2587C634.228 66.5067 636.756 68.2827 638.676 70.5867C640.596 72.8907 641.78 75.5947 642.228 78.6987L630.42 80.8107C630.132 78.6027 629.124 76.8587 627.396 75.5787C625.7 74.2987 623.428 73.5787 620.58 73.4187C617.86 73.2587 615.668 73.6747 614.004 74.6667C612.34 75.6267 611.508 76.9867 611.508 78.7467C611.508 79.7387 611.844 80.5867 612.516 81.2907C613.188 81.9947 614.532 82.6987 616.548 83.4027C618.596 84.1067 621.636 84.9707 625.668 85.9947C629.796 87.0507 633.092 88.2667 635.556 89.6427C638.052 90.9867 639.844 92.6027 640.932 94.4907C642.052 96.3787 642.612 98.6667 642.612 101.355C642.612 106.571 640.708 110.667 636.9 113.643C633.124 116.619 627.892 118.107 621.204 118.107Z" fill="white"/>
<g clip-path="url(#clip0)">
<path fill-rule="evenodd" clip-rule="evenodd" d="M0 61.4399C2.4846 104.323 40.8827 105.049 40.8827 139.52C40.8827 150.831 31.7308 160 20.4413 160C9.1519 160 0 150.831 0 139.52V61.4399ZM0 61.4399C0 58.3858 0.225406 55.3869 0.654887 52.4521C0.229388 54.098 0 55.8209 0 57.5999V61.4399Z" fill="white"/>
<path fill-rule="evenodd" clip-rule="evenodd" d="M0.5 66.6432C0.273243 64.9799 0.104722 63.2473 0 61.4399V139.52C0 150.831 9.1519 160 20.4413 160C31.7308 160 40.8827 150.831 40.8827 139.52C40.8827 122.97 32.0318 114.199 22.5539 104.806C13.1225 95.4591 3.07025 85.497 0.5 66.6432ZM0.5 69.7709V139.52C0.5 150.555 9.42893 159.5 20.4413 159.5C31.4538 159.5 40.3827 150.555 40.3827 139.52C40.3827 123.182 31.6703 114.546 22.1776 105.137C21.793 104.756 21.4072 104.373 21.0206 103.989C12.447 95.4667 3.57275 86.0927 0.5 69.7709ZM1.68728e-06 61.4254C0.000301349 60.1402 0.0405141 58.8648 0.11905 57.5999C0.226841 55.8637 0.406823 54.1472 0.654887 52.4521C0.229388 54.098 0 55.8209 0 57.5999L1.68728e-06 61.4254Z" fill="white"/>
<path d="M39.2934 89.5069C37.0639 87.7275 35.7606 86.4714 34.1554 84.5554C24.9999 73.6266 23.0687 58.6191 29.1909 45.9757C30.274 43.7391 31.9041 41.0601 32.182 41.0601C32.2726 41.0601 35.3796 44.6476 35.9949 45.1606C45.9926 57.4811 43.9276 72.3483 42.6006 83.4111L40.7364 90.6588L39.2934 89.5069Z" fill="white"/>
<path fill-rule="evenodd" clip-rule="evenodd" d="M31.2027 42.8099C30.6289 43.7529 29.9545 44.9748 29.4168 46.0854C23.3385 58.6381 25.2545 73.5399 34.3477 84.3944C35.9407 86.2959 37.2317 87.5405 39.4499 89.311L40.5898 90.2209L42.3533 83.3649C42.3826 83.1211 42.4121 82.8754 42.4419 82.6281C43.7656 71.6426 45.4957 57.2841 35.8146 45.3372C35.6412 45.1879 35.3297 44.8638 34.9682 44.4745C34.5876 44.0645 34.1375 43.5667 33.705 43.0862C33.5906 42.959 33.4774 42.8332 33.3671 42.7104C33.0597 42.3685 32.7741 42.0508 32.5438 41.7979C32.3877 41.6265 32.2586 41.4867 32.1661 41.39C32.1084 41.4555 32.0367 41.5463 31.9523 41.6619C31.7494 41.9399 31.4899 42.3379 31.2027 42.8099ZM32.2692 41.2892C32.2692 41.2894 32.2674 41.2907 32.2639 41.2926C32.2676 41.29 32.2693 41.289 32.2692 41.2892ZM31.9658 40.8886C31.9996 40.8639 32.0786 40.8093 32.1819 40.8093C32.2291 40.8093 32.2647 40.8226 32.2788 40.8283C32.2962 40.8354 32.3097 40.843 32.3178 40.8479C32.334 40.8577 32.3472 40.8678 32.3553 40.8742C32.3723 40.8877 32.3897 40.9036 32.4054 40.9185C32.4379 40.9492 32.4797 40.9916 32.5278 41.0419C32.6249 41.1434 32.7579 41.2875 32.9149 41.4599C33.1464 41.714 33.4337 42.0336 33.7415 42.376C33.8516 42.4985 33.9644 42.6239 34.0782 42.7503C34.5106 43.2308 34.9584 43.7261 35.3362 44.133C35.7192 44.5456 36.0167 44.8524 36.1555 44.9681L36.1743 44.9837L36.1897 45.0027C46.0232 57.1209 44.2675 71.6817 42.946 82.6412C42.9136 82.9101 42.8815 83.1768 42.8497 83.4412L42.8478 83.4578L40.8828 91.0971L39.1367 89.7034C36.896 87.9149 35.5802 86.6473 33.9629 84.7168C24.7452 73.7138 22.7989 58.6006 28.9649 45.8666C29.5102 44.7405 30.1924 43.5046 30.7739 42.549C31.0643 42.0716 31.3321 41.6601 31.5469 41.3659C31.6536 41.2196 31.7515 41.0964 31.8355 41.0075C31.877 40.9635 31.9211 40.9215 31.9658 40.8886Z" fill="white"/>
<path d="M41.135 91.1806C41.1953 91.1806 41.6066 91.4293 42.0489 91.7333C43.4251 92.6791 46.0385 94.0185 48.1121 94.8408C58.4185 98.928 70.3838 97.9468 79.7954 92.2426C85.9621 88.5051 91.2672 82.4923 94.084 76.0481C98.3351 66.3226 98.1776 55.3625 93.6511 45.9232C90.1294 38.579 84.353 32.7387 77.1017 29.1904C65.745 23.6332 52.1587 24.4684 41.6988 31.3668C38.3861 33.5516 35.1776 36.5181 32.9496 39.4561L32.0463 40.6473L31.4851 40.2652C28.6459 38.3319 24.1318 37.0148 20.3416 37.0138C12.6501 37.0118 5.39701 41.6057 1.93105 48.6746C1.26549 50.032 1.18921 50.1244 1.29434 49.4456C1.53807 47.8721 2.41183 44.5506 3.23345 42.0744C10.8136 19.2289 31.3672 2.76158 55.2635 0.388475C58.4804 0.0690107 64.8771 0.11458 68.0586 0.479626C81.7699 2.05284 94.0819 7.87777 103.917 17.4444C114.303 27.5469 120.56 40.4129 122.247 55.1324C122.599 58.203 122.544 65.3091 122.143 68.53C121.218 75.9641 119.302 82.3575 116.077 88.7709C114.166 92.5713 112.584 95.1546 110.292 98.217C100.33 111.53 85.6816 120.064 68.9244 122.318C47.1924 122.325 36.0386 111.221 41.135 91.1806V91.1806Z" fill="white"/>
<path fill-rule="evenodd" clip-rule="evenodd" d="M68.0298 0.72902C64.8662 0.366029 58.4875 0.32056 55.2882 0.638276C31.4908 3.00155 11.0206 19.4017 3.47155 42.1534C2.79353 44.1969 2.08172 46.8127 1.71976 48.5352C5.23221 41.3992 12.5619 36.7608 20.3415 36.7629C24.1767 36.7639 28.7411 38.0932 31.6263 40.0577L31.9903 40.3056L32.7495 39.3045C34.9959 36.3421 38.2258 33.3565 41.5605 31.1573C52.0954 24.2095 65.7762 23.3692 77.2119 28.965C84.5144 32.5383 90.3314 38.4201 93.8773 45.8147C98.4358 55.3209 98.5937 66.3573 94.3139 76.1486C91.4758 82.6415 86.1351 88.6937 79.9254 92.4572C70.446 98.2025 58.3982 99.1901 48.0195 95.0742C45.9338 94.2471 43.3025 92.8995 41.9066 91.9402C41.6886 91.7903 41.4793 91.6549 41.3187 91.5578C41.3129 91.5543 41.3072 91.5509 41.3017 91.5475C38.8746 101.367 40.4104 108.952 45.1535 114.097C49.9517 119.302 58.0845 122.068 68.9075 122.067C85.5922 119.818 100.173 111.32 110.091 98.0666C112.373 95.0173 113.947 92.4468 115.852 88.6582C119.064 82.2715 120.972 75.9059 121.894 68.499C122.292 65.2969 122.347 58.2108 121.997 55.161C120.317 40.4976 114.085 27.6855 103.742 17.6244C93.9468 8.09666 81.6863 2.29595 68.0298 0.72902ZM41.1349 91.1806L40.8916 91.1187C38.3302 101.191 39.8407 109.075 44.7844 114.437C49.7195 119.79 58.0237 122.573 68.9244 122.569L68.9411 122.569L68.9578 122.566C85.7804 120.304 100.49 111.735 110.493 98.3674C112.794 95.292 114.384 92.6959 116.301 88.8837C119.54 82.4435 121.464 76.0224 122.392 68.561C122.795 65.3213 122.85 58.1952 122.496 55.1038C120.803 40.3283 114.52 27.4083 104.092 17.2646C94.2167 7.65893 81.8531 1.80979 68.0871 0.230284C64.8876 -0.136817 58.4731 -0.182487 55.2386 0.138725C31.2434 2.52165 10.6064 19.0561 2.99509 41.9953C2.17147 44.4776 1.29294 47.814 1.04616 49.4073C1.02103 49.5695 1.00095 49.7177 1.00497 49.813C1.00602 49.838 1.00913 49.8772 1.02244 49.9183C1.03286 49.9505 1.07198 50.0531 1.19097 50.0948C1.31176 50.1371 1.40731 50.0794 1.43676 50.0592C1.47334 50.034 1.50039 50.0038 1.5171 49.9835C1.58141 49.9056 1.66194 49.7632 1.75815 49.5798C1.85901 49.3875 1.98991 49.1244 2.15629 48.7851C5.58134 41.7996 12.7486 37.2628 20.3414 37.2649C24.0867 37.2659 28.5504 38.5707 31.3437 40.4727L32.102 40.989L33.1495 39.6078C35.359 36.6941 38.5461 33.7467 41.8369 31.5764C52.2217 24.7275 65.7134 23.8973 76.9913 29.4159C84.1913 32.9391 89.9271 38.738 93.4246 46.0318C97.919 55.4042 98.0762 66.2879 93.8539 75.9476C91.0584 82.3431 85.7888 88.3166 79.6652 92.0279C70.3214 97.6911 58.4385 98.666 48.2045 94.6075C46.143 93.79 43.5475 92.4587 42.191 91.5265C41.9667 91.3723 41.7491 91.2314 41.5785 91.1282C41.4935 91.0768 41.4175 91.0332 41.3568 91.0016C41.3268 90.9859 41.2967 90.9713 41.2692 90.9599C41.2556 90.9543 41.239 90.948 41.2212 90.9427C41.2073 90.9386 41.1748 90.9296 41.1349 90.9296V91.1806ZM1.50656 49.7924C1.50667 49.7934 1.5067 49.794 1.50669 49.7941Z" fill="white"/>
</g>
<defs>
<clipPath id="clip0">
<rect width="122.648" height="160" fill="white"/>
</clipPath>
</defs>
</svg>
